<svg width="36" height="36" viewBox="0 0 36 36" fill="none" xmlns="http://www.w3.org/2000/svg">
<path fill-rule="evenodd" clip-rule="evenodd" d="M1.75004 16.311H4.25004V23.822C4.25004 26.2177 4.25269 27.8889 4.42198 29.15C4.58648 30.3753 4.88744 31.0245 5.34905 31.4868C5.8104 31.9488 6.45787 32.2499 7.68049 32.4145C8.93925 32.584 10.6076 32.5866 13 32.5866H23C25.3924 32.5866 27.0607 32.584 28.3195 32.4145C29.5421 32.2499 30.1896 31.9488 30.651 31.4868C31.1126 31.0244 31.4135 30.3752 31.578 29.15C31.7473 27.8889 31.75 26.2177 31.75 23.822V16.311H34.25V23.9134C34.25 26.1962 34.2501 28.0358 34.0558 29.4826C33.8542 30.9845 33.4229 32.2488 32.42 33.2532C31.4169 34.2578 30.1536 34.6901 28.6531 34.8921C27.208 35.0867 25.3708 35.0867 23.0916 35.0866H12.9085C10.6293 35.0867 8.79194 35.0867 7.34687 34.8921C5.84635 34.6901 4.58308 34.2578 3.57996 33.2532C2.57711 32.2488 2.14584 30.9845 1.94421 29.4826C1.74998 28.0358 1.75001 26.1961 1.75004 23.9133L1.75004 16.311Z" fill="#0095E6"/>
<path fill-rule="evenodd" clip-rule="evenodd" d="M8.41671 27.9568C8.41671 27.2665 8.97635 26.7068 9.66671 26.7068H16.3333C17.0237 26.7068 17.5833 27.2665 17.5833 27.9568C17.5833 28.6472 17.0237 29.2068 16.3333 29.2068H9.66671C8.97635 29.2068 8.41671 28.6472 8.41671 27.9568Z" fill="#0095E6"/>
<path fill-rule="evenodd" clip-rule="evenodd" d="M27.6222 0.917554C28.5997 0.867717 30.3023 1.23867 31.5332 2.43514C32.081 2.96765 32.35 3.61392 32.4995 4.18415C32.6333 4.69452 32.6914 5.23191 32.7368 5.6514C32.7406 5.68676 32.7444 5.72128 32.7481 5.75487C32.8992 7.13714 33.3497 8.46059 34.48 9.90858C36.7206 12.779 36.0259 15.6751 34.4954 17.1073C33.4238 18.1102 30.8046 20.1574 27.6342 18.8507C26.3124 18.3059 25.3055 17.5842 24.6099 16.5575C24.5372 16.4501 24.4688 16.3408 24.4045 16.2296C24.2866 16.3736 24.1642 16.514 24.0378 16.65C23.1147 17.6436 21.9003 18.4935 20.5272 18.8745C19.2418 19.2311 17.1928 19.4096 15.1766 18.7194C13.8801 18.2756 12.6284 17.481 11.6281 16.2081C11.44 16.5235 11.2238 16.8277 10.9795 17.1139C9.8935 18.3864 8.24337 19.3088 6.08602 19.2598C6.05741 19.2592 6.02883 19.2575 6.00032 19.2549C5.32347 19.1929 4.3793 18.9855 3.46678 18.5655C2.56289 18.1493 1.561 17.4637 0.968542 16.3689C0.466138 15.4406 0.0044465 14.4875 0.101346 13.3207C0.193556 12.2105 0.774646 11.11 1.66762 9.76594C2.5077 8.50152 2.92245 7.58516 3.13204 6.91394C3.33607 6.26057 3.36004 5.79581 3.36004 5.38815C3.36004 4.61515 3.61035 3.48968 4.37274 2.54975C5.1816 1.55253 6.47378 0.882448 8.27861 0.965806L27.6222 0.917554ZM28.6655 3.57181C28.2433 3.43222 27.8933 3.40481 27.7414 3.41478C27.7151 3.4165 27.6889 3.4174 27.6626 3.41746L8.25287 3.46588C8.23042 3.46593 8.20796 3.46538 8.18553 3.46423C7.11191 3.40899 6.59583 3.77757 6.31434 4.12461C5.98111 4.53544 5.86004 5.07063 5.86004 5.38815C5.86004 5.9558 5.82114 6.68963 5.51841 7.65911C5.22125 8.61073 4.68536 9.74147 3.74992 11.1494C2.86738 12.4778 2.62743 13.1104 2.59277 13.5277C2.5628 13.8885 2.66841 14.2573 3.16723 15.179C3.40572 15.6197 3.87609 16.0017 4.51222 16.2945C5.11945 16.5741 5.76049 16.717 6.18656 16.7613C7.50649 16.779 8.44434 16.2333 9.07795 15.491C9.74835 14.7055 10.0678 13.7061 10.0678 12.9416C10.0678 12.3268 10.5149 11.8032 11.1221 11.707C11.7293 11.6107 12.3163 11.9703 12.5065 12.5549C13.2486 14.8367 14.6175 15.8856 15.9862 16.3542C17.4235 16.8461 18.9438 16.7194 19.8588 16.4655C20.6903 16.2348 21.5226 15.6842 22.2063 14.9484C22.8927 14.2095 23.3499 13.3695 23.514 12.66C23.6513 12.0658 24.1975 11.6575 24.8063 11.6938C25.4151 11.7301 25.9088 12.2004 25.9745 12.8068C26.0941 13.9088 26.3214 14.6265 26.6797 15.1553C27.0259 15.6663 27.5784 16.1237 28.5868 16.5393C30.2437 17.2222 31.7759 16.2284 32.7872 15.282C33.3398 14.7649 33.9817 13.3331 32.5093 11.4469C31.079 9.61461 30.462 7.84753 30.2629 6.02693L30.257 5.9726C30.2056 5.50354 30.166 5.14164 30.0812 4.81829C29.9976 4.49937 29.8956 4.32974 29.7907 4.22774C29.4794 3.92522 29.077 3.70789 28.6655 3.57181Z" fill="#0095E6"/>
</svg>
